<svg width="120" height="120" viewBox="0 0 120 120" xmlns="http://www.w3.org/2000/svg">
  <!-- Dark background -->
  <rect width="120" height="120" fill="#0a0e27" rx="20"/>

  <!-- Rotating gear -->
  <g>
    <animateTransform attributeName="transform" type="rotate" from="0 60 60" to="360 60 60" dur="8s" repeatCount="indefinite"/>

    <!-- Gear outer ring -->
    <circle cx="60" cy="60" r="30" fill="none" stroke="#00d4ff" stroke-width="3">
      <animate attributeName="opacity" values="0.7;1;0.7" dur="2s" repeatCount="indefinite"/>
    </circle>

    <!-- Gear teeth -->
    <rect x="57" y="20" width="6" height="12" fill="#00d4ff"/>
    <rect x="57" y="88" width="6" height="12" fill="#00d4ff"/>
    <rect x="20" y="57" width="12" height="6" fill="#00d4ff"/>
    <rect x="88" y="57" width="12" height="6" fill="#00d4ff"/>

    <rect x="35" y="31" width="6" height="12" fill="#00d4ff" transform="rotate(45 38 37)"/>
    <rect x="79" y="31" width="6" height="12" fill="#00d4ff" transform="rotate(-45 82 37)"/>
    <rect x="35" y="77" width="6" height="12" fill="#00d4ff" transform="rotate(-45 38 83)"/>
    <rect x="79" y="77" width="6" height="12" fill="#00d4ff" transform="rotate(45 82 83)"/>
  </g>

  <!-- Inner gear -->
  <circle cx="60" cy="60" r="14" fill="none" stroke="#ffffff" stroke-width="2.5">
    <animate attributeName="opacity" values="0.8;1;0.8" dur="2s" repeatCount="indefinite"/>
    <animateTransform attributeName="transform" type="rotate" from="0 60 60" to="-360 60 60" dur="6s" repeatCount="indefinite"/>
  </circle>

  <!-- Center dot with pulse -->
  <circle cx="60" cy="60" r="6" fill="#ffffff">
    <animate attributeName="r" values="5;7;5" dur="1.5s" repeatCount="indefinite"/>
    <animate attributeName="opacity" values="0.8;1;0.8" dur="1.5s" repeatCount="indefinite"/>
  </circle>

  <!-- Sparkle effects -->
  <g opacity="0">
    <animate attributeName="opacity" values="0;1;0" dur="2s" repeatCount="indefinite"/>
    <path d="M 95 25 L 97 29 L 101 27 L 99 31 L 103 33 L 99 33 L 97 37 L 95 33 L 91 33 L 95 31 Z" fill="#00d4ff"/>
  </g>
  <g opacity="0">
    <animate attributeName="opacity" values="0;1;0" dur="2s" begin="0.7s" repeatCount="indefinite"/>
    <path d="M 20 20 L 23 24 L 27 22 L 25 26 L 29 28 L 25 28 L 23 32 L 21 28 L 17 28 L 21 26 Z" fill="#ffffff"/>
  </g>
  <g opacity="0">
    <animate attributeName="opacity" values="0;1;0" dur="2s" begin="1.3s" repeatCount="indefinite"/>
    <path d="M 100 90 L 102 94 L 106 92 L 104 96 L 108 98 L 104 98 L 102 102 L 100 98 L 96 98 L 100 96 Z" fill="#00d4ff"/>
  </g>
</svg>
